PathFileType	4	(X/Y/Z)	C:/Users/beibeiliu/ov580/test_trc/User1\sequence.14_training_dense_left.trc
DataRate	CameraRate	NumFrames	NumMarkers	Units	OrigDataRate	OrigDataStartFrame	OrigNumFrames
120	120	22	19	mm	120	67	267
Frame#	Time	ThumbCMC			ThumbMCP			ThumbIP			ThumbTip			IndexMCP			IndexPIP			IndexTip			MiddleMCP			MiddlePIP			MiddleTip			RingMCP			RingPIP			RingTip			PinkyMCP			PinkyPIP			PinkyTip			BackHand1			BackHand2			BackHand3	
		X0	Y0	Z0	X1	Y1	Z1	X2	Y2	Z2	X3	Y3	Z3	X4	Y4	Z4	X5	Y5	Z5	X6	Y6	Z6	X7	Y7	Z7	X8	Y8	Z8	X9	Y9	Z9	X10	Y10	Z10	X11	Y11	Z11	X12	Y12	Z12	X13	Y13	Z13	X14	Y14	Z14	X15	Y15	Z15	X16	Y16	Z16	X17	Y17	Z17	X18	Y18	Z18	
66	0.55	-236.32	111.601	32.0376	-218.172	127.575	3.39711	-207.736	127.902	-24.3346	-194.351	128.512	-47.4156	-248.206	82.9474	-44.188	-225.518	89.6755	-70.4742	-197.431	109.226	-66.802	-241.439	54.2428	-50.9233	-232.779	59.0368	-77.9122	-205.166	68.188	-102.363	-223.643	41.0623	-42.7755	-210.753	42.3867	-71.1708	-194.424	54.9599	-87.536	-204.152	30.5953	-20.8735	-193.92	35.1033	-45.6116	-179.824	47.8439	-66.6955	-234.363	42.2971	21.3203	-232.126	42.4739	50.6238	-254.343	70.1188	31.9134	
67	0.558333	-230.752	116.944	32.8323	-208.806	127.624	5.00873	-199.86	130.489	-24.2804	-188.177	124.077	-46.841	-246.528	87.3538	-43.0546	-226.855	91.6968	-68.99	-196.611	104.994	-70.8375	-245.978	60.6639	-47.8469	-234.697	62.0137	-79.1823	-210.561	66.5375	-100.326	-232.962	44.6548	-41.307	-219.913	46.6908	-72.6531	-200.884	55.5065	-89.7449	-213.175	30.5112	-25.438	-202.194	32.9985	-49.045	-188.051	49.6489	-68.5467	-240.959	45.9687	21.2417	-237.963	48.6448	50.2135	-254.27	78.6906	32.1233	
68	0.566667	-219.487	119.47	36.5024	-196.672	126.779	7.22928	-189.831	125.988	-18.0737	-177.73	124.304	-43.7936	-245.368	98.449	-43.5133	-223.818	96.6215	-70.4147	-193.691	97.994	-71.6526	-252.756	70.4131	-46.4273	-242.017	68.7013	-75.4319	-218.486	72.1539	-99.2663	-244.243	53.9078	-38.4228	-233.407	52.0947	-70.3838	-213.246	52.6842	-88.4302	-227.275	32.0105	-23.8793	-218.695	36.5444	-49.4949	-203.584	49.7352	-68.3142	-247.673	54.4473	18.9207	-245.164	51.5627	52.8816	-251.519	86.7064	33.2282	
69	0.575	-207.564	114.393	40.6118	-185.489	118.856	8.4418	-176.965	121.701	-17.2498	-165.729	118.658	-39.754	-239.007	113.193	-40.6505	-220.501	103.786	-67.4593	-191.919	95.9157	-72.5185	-253.815	84.9466	-46.9788	-245.759	82.099	-74.2032	-220.955	78.9794	-100.353	-251.084	62.5485	-38.5815	-244.172	60.7426	-68.1505	-223.207	61.7008	-88.4579	-241.951	40.89	-25.3832	-233.281	44.194	-49.2761	-217.701	49.1515	-69.1271	-253.475	62.7481	24.4334	-248.27	58.6973	57.6112	-246.322	96.1918	37.5416	
70	0.583333	-192.233	111.057	42.9142	-174.228	106.439	13.0975	-162.848	110.101	-14.138	-154.391	107.278	-38.1883	-225.402	122.937	-36.9145	-213.976	115.578	-62.925	-185.45	92.9102	-73.3836	-246.481	104.554	-41.2308	-241.204	99.1746	-72.0256	-219.828	92.9081	-97.5009	-253.394	77.4796	-36.9057	-243.025	77.012	-70.7125	-223.998	68.193	-91.9757	-251.049	52.2208	-26.8595	-244.745	49.4865	-48.7569	-223.064	56.2164	-71.3357	-254.986	74.52	22.5173	-247.582	71.8263	57.1251	-236.106	103.796	40.8367	
71	0.591667	-186.195	107.667	40.8668	-164.026	101.229	16.3898	-157.993	102.177	-12.4846	-146.778	98.8237	-37.3559	-218.359	122.056	-35.4754	-204.464	113.886	-63.4604	-181.647	91.618	-73.0008	-242.144	111.818	-39.3298	-234.477	109.98	-71.0356	-215.796	96.197	-99.8655	-249.1	88.3381	-39.3288	-244.128	85.0623	-66.2427	-224.728	73.4046	-92.0514	-253.249	60.0552	-22.1251	-246.442	58.6477	-49.6628	-228.332	60.2772	-73.8805	-252.547	82.6419	21.4171	-248.897	76.0639	55.8042	-228.304	109.986	40.5598	
72	0.6	-181.3	103.333	45.2542	-162.14	97.2306	15.3434	-151.638	99.8396	-11.9685	-147.784	94.2003	-37.2696	-213.802	123.697	-35.2828	-203.288	113.522	-62.7452	-181.331	93.5304	-72.7694	-239.754	112.087	-42.2455	-232.302	107.46	-73.9666	-216.143	95.3311	-98.1907	-248.726	90.0326	-38.77	-240.896	88.3307	-69.866	-222.821	77.879	-91.8677	-251.555	66.2231	-23.4254	-248.416	61.0368	-49.5385	-233.026	58.7978	-75.0106	-252.486	83.7489	24.3798	-247.001	77.6675	58.8098	-226.677	107.053	42.4072	
73	0.608333	-181.375	100.228	44.7893	-164.597	94.8881	11.5844	-153.868	95.7762	-17.1012	-144.354	89.7435	-38.0013	-209.773	124.284	-33.3098	-197.694	114.783	-63.3243	-178.325	87.4059	-72.224	-235.096	114.44	-40.1721	-231.007	109.817	-70.6346	-213.141	94.0223	-100.192	-246.416	92.9674	-36.7286	-237.664	89.333	-70.6526	-221.982	76.2135	-92.2575	-251.784	66.7988	-28.1693	-248.207	60.4409	-51.8017	-228.147	62.1395	-74.4425	-248.189	87.1448	21.5801	-249.158	75.5903	52.837	-225.209	106.75	39.8929	
74	0.616667	-182.269	97.1996	42.1185	-160.082	92.3481	10.6603	-154.684	91.716	-19.8195	-145.45	86.1174	-40.9206	-207.892	121.324	-34.8892	-197.187	109.176	-63.0173	-174.559	86.5278	-70.3659	-234.009	114.59	-43.1006	-228.199	108.939	-72.3504	-211.484	97.1716	-98.0748	-244.531	93.9498	-36.1478	-239.212	88.222	-72.3253	-224.656	77.6333	-88.592	-252.997	65.4472	-27.0623	-247.36	64.3853	-48.8457	-229.443	63.3112	-73.148	-248.553	81.7271	23.3796	-245.412	78.6514	55.9974	-222.303	106.399	40.9079	
75	0.625	-178.268	95.5723	40.4131	-161.679	86.9603	8.02771	-154.067	87.5295	-18.5425	-148.947	80.1618	-43.191	-207.321	118.023	-36.2631	-192.61	102.336	-63.5735	-170.939	81.1358	-67.1764	-231.808	113.447	-42.1999	-226.617	107.302	-73.3574	-208.909	91.3272	-100.934	-245.897	91.3715	-39.5543	-237.442	91.3878	-70.2132	-222.724	75.3105	-94.2473	-251.042	67.1226	-25.426	-249.223	63.6562	-51.1595	-229.302	64.8349	-74.2765	-245.897	86.7857	18.9831	-244.085	76.7451	56.4755	-222.915	103.345	42.6853	
76	0.633333	-176.416	92.1665	37.4118	-159.305	82.3773	7.5856	-158.128	81.3313	-21.5626	-150.224	75.3088	-46.4846	-199.096	118.694	-34.6136	-186.642	102.458	-63.16	-172.009	73.6593	-64.2183	-229.09	112.626	-44.7771	-224.197	105.746	-74.6962	-207.832	91.8392	-98.7827	-242.425	94.751	-38.3278	-238.83	88.7116	-72.6386	-225.633	75.7177	-91.3682	-253.657	67.2702	-28.4077	-249.346	65.0873	-51.6726	-229.207	62.6362	-77.7452	-244.957	83.6619	22.5281	-247.887	75.6377	51.7195	-221.63	103.661	38.1958	
77	0.641667	-178.593	85.661	39.0953	-162.182	77.4324	5.87342	-154.782	75.6948	-22.4089	-151.842	69.363	-45.7983	-198.778	113.916	-36.2885	-185.5	97.2106	-63.6488	-170.743	66.3462	-64.1494	-225.23	112.617	-43.2137	-219.463	106.989	-72.4822	-207.639	87.309	-98.6247	-242.637	93.2356	-40.4744	-238.05	87.6059	-73.0742	-224.515	74.2281	-94.6138	-252.491	70.1417	-29.5342	-247.356	66.31	-54.0673	-229.903	62.8391	-72.87	-247.554	85.7467	20.9496	-245.627	74.4602	53.0714	-220.172	101.639	38.1666	
78	0.65	-173.39	83.7772	38.9182	-161.044	74.6501	3.3105	-156.119	71.6534	-22.6564	-155.59	65.3261	-47.1313	-194.396	111.3	-38.7281	-183.285	96.669	-63.0672	-171.643	66.059	-64.6153	-226.574	109.505	-41.6184	-216.401	104.748	-77.1629	-203.515	88.2713	-99.7408	-241.96	93.9351	-37.5168	-239.137	88.7909	-72.4099	-226.878	76.6204	-91.7448	-252.09	69.1294	-25.5999	-246.661	66.0186	-55.3312	-231.367	61.5314	-75.6138	-242.274	84.4402	22.4801	-243.255	75.63	51.4357	-213.95	100.106	38.7616	
79	0.658333	-174.396	80.2511	36.8682	-158.751	70.2963	4.62567	-152.026	68.2563	-23.9473	-152.327	61.213	-48.3871	-193.807	108.639	-37.2755	-182.239	88.6047	-64.5032	-170.795	62.7683	-65.5877	-223.661	108.538	-43.8558	-214.877	105.22	-73.2899	-205.406	84.9762	-99.0969	-239.59	95.2354	-42.4275	-237.356	88.7387	-71.625	-224.738	77.2434	-92.5046	-252.375	69.8365	-27.6818	-250.333	66.3313	-52.444	-233.425	60.8568	-74.3685	-243.252	82.7442	22.0588	-242.488	78.0989	51.6981	-213.9	99.9597	38.5714	
80	0.666667	-174.998	77.4825	37.1303	-155.514	66.5698	7.64585	-154.996	66.0844	-22.6235	-153.452	57.5256	-45.6847	-190.338	107.365	-40.7444	-180.933	86.4977	-64.5703	-167.471	58.1365	-63.7719	-220.963	108.104	-43.8118	-214.239	103.142	-76.1273	-202.298	85.3522	-98.9523	-236.944	94.3821	-38.6987	-233.15	91.7802	-68.6692	-220.778	76.5265	-94.2419	-254.621	68.5389	-30.5185	-246.817	67.7032	-50.9675	-234.734	60.5408	-75.4779	-245.039	86.0765	17.8313	-239.324	76.6134	52.4222	-211.711	97.7979	39.6649	
81	0.675	-170.088	76.6631	38.5374	-155.909	65.5523	5.45373	-152.248	64.5692	-22.953	-152.093	55.5886	-46.1576	-188.337	106.324	-37.6056	-182.133	87.8377	-63.1221	-171.514	54.7407	-63.6325	-215.783	109.504	-43.842	-208.944	105.356	-74.9578	-203.986	84.0579	-100.917	-237.889	93.4395	-38.984	-235.583	91.0013	-69.5003	-220.67	76.6877	-95.6288	-249.713	71.5542	-30.8172	-246.604	68.7537	-53.0975	-235.516	59.2623	-77.9986	-243.708	84.215	19.9614	-243.139	74.3641	50.6998	-211.037	96.4873	38.2905	
82	0.683333	-171.161	77.054	38.0865	-157.529	64.5492	8.73446	-153.717	63.5074	-23.9441	-155.202	57.3754	-47.2933	-186.096	107.962	-38.341	-178.414	89.4251	-62.9327	-172.815	56.4336	-64.3961	-216.774	109.585	-40.8176	-208.731	103.962	-76.9582	-201.886	84.0371	-101.777	-237.106	95.6743	-39.9989	-235.206	91.4833	-70.2486	-220.315	79.3269	-93.5237	-251.068	71.2095	-25.9719	-249.21	69.0727	-53.1064	-236.013	61.2926	-75.5276	-239.997	88.2442	18.065	-240.29	77.7874	52.0682	-212.119	97.0741	40.7927	
83	0.691667	-172.859	74.3343	40.364	-154.536	64.4936	6.83939	-154.579	63.779	-22.147	-153.39	56.8651	-48.2838	-185.994	107.769	-36.5514	-179.237	88.4224	-63.199	-170.791	57.5951	-65.2319	-218.755	109.856	-45.0749	-212.337	103.195	-75.3379	-203.57	85.3517	-99.5969	-237.01	95.9479	-38.1799	-234.743	92.9866	-69.6532	-223.927	77.8284	-94.7586	-253.069	70.4008	-27.0284	-251.569	67.9002	-52.4994	-233.092	63.3614	-76.5141	-242.368	85.2754	18.1353	-242.904	74.4584	51.5453	-210.837	97.5765	39.1935	
84	0.7	-170.995	77.0294	36.9663	-154.619	65.4861	4.861	-148.428	64.4025	-23.2968	-150.512	56.6606	-47.2833	-186.527	108.859	-36.4746	-179.37	86.2459	-64.5295	-169.42	59.6731	-66.0345	-214.575	111.025	-44.7698	-212.733	105.733	-73.8087	-200.962	87.83	-101.341	-238.01	96.5852	-39.9563	-231.548	94.0211	-72.8172	-221.661	79.895	-95.6851	-250.608	74.5911	-29.2267	-250.982	69.4181	-53.4617	-233.988	66.4072	-76.4091	-243.59	87.5025	18.4318	-240.539	74.7057	53.3648	-209.19	98.1791	39.3196	
85	0.708333	-169.668	75.1741	38.1652	-156.597	65.2829	5.08534	-151.425	63.2687	-21.4885	-147.836	57.394	-47.5257	-187.041	108.321	-39.314	-181.264	92.1948	-63.677	-171.488	60.1512	-67.7604	-214.696	112.406	-42.6171	-208.927	107.029	-76.6895	-201.749	90.1593	-100.815	-239.029	97.7164	-40.5915	-231.087	97.4326	-71.3958	-224.87	80.7739	-96.926	-254.354	74.5053	-31.565	-249.968	72.0943	-53.1786	-236.182	64.497	-81.0861	-241.945	86.1788	19.6208	-239.085	78.8143	49.8259	-207.328	96.8473	40.9645	
86	0.716667	-170.544	74.0024	38.3593	-153.042	63.3858	6.27255	-143.785	60.6748	-18.2999	-142.411	55.3227	-48.3024	-187.567	108.381	-38.1277	-177.605	94.6667	-67.85	-170.172	61.348	-73.4985	-217.658	110.35	-42.1325	-211.167	108.333	-73.7936	-204.688	89.5212	-106.224	-235.559	98.0812	-40.2377	-233.445	95.7656	-74.3086	-227.47	84.0222	-94.8992	-250.736	76.1199	-29.0665	-246.831	73.4172	-55.4413	-239.832	65.4971	-79.1516	-239.847	85.1165	20.027	-237.768	81.0258	49.3108	-205.477	98.5163	39.1148	
87	0.725	-167.489	73.322	37.3744	-149.14	61.5093	7.01087	-144.831	59.4754	-19.0445	-134.684	51.4938	-43.249	-186.489	110.077	-41.079	-181.667	98.3934	-69.3639	-172.825	67.9107	-81.1979	-213.565	113.117	-45.0101	-209.69	111.027	-75.9389	-205.826	94.5356	-103.285	-238.045	98.2307	-40.3413	-233.343	98.742	-71.5018	-227.344	85.5163	-97.4915	-250.91	76.2722	-28.4974	-251.876	72.4546	-56.335	-242.446	65.3073	-78.9175	-239.422	88.4131	18.9733	-237.97	79.2519	52.3815	-204.837	98.0715	37.5047	
